<svg width="30" height="31" viewBox="0 0 30 31" fill="none" xmlns="http://www.w3.org/2000/svg">
<path d="M11.9625 24.3092C11.725 24.3092 11.4875 24.2188 11.3 24.025L3.71255 16.1846C3.35005 15.81 3.35005 15.19 3.71255 14.8154L11.3 6.97503C11.6625 6.60045 12.2625 6.60045 12.625 6.97503C12.9875 7.34961 12.9875 7.96961 12.625 8.3442L5.70005 15.5L12.625 22.6559C12.9875 23.0304 12.9875 23.6504 12.625 24.025C12.45 24.2188 12.2 24.3092 11.9625 24.3092Z" fill="#CCFF00"/>
<path d="M25.625 16.4688H4.58752C4.07502 16.4688 3.65002 16.0296 3.65002 15.5C3.65002 14.9704 4.07502 14.5312 4.58752 14.5312H25.625C26.1375 14.5312 26.5625 14.9704 26.5625 15.5C26.5625 16.0296 26.1375 16.4688 25.625 16.4688Z" fill="#CCFF00"/>
</svg>
