<svg width="15" height="15" viewBox="0 0 15 15" fill="none" xmlns="http://www.w3.org/2000/svg">
<path d="M5.98127 11.7625C5.86252 11.7625 5.74377 11.7187 5.65002 11.625L1.85627 7.8312C1.67502 7.64995 1.67502 7.34995 1.85627 7.1687L5.65002 3.37495C5.83127 3.1937 6.13127 3.1937 6.31252 3.37495C6.49377 3.5562 6.49377 3.8562 6.31252 4.03745L2.85002 7.49995L6.31252 10.9625C6.49377 11.1437 6.49377 11.4437 6.31252 11.625C6.22502 11.7187 6.10002 11.7625 5.98127 11.7625Z" fill="white"/>
<path d="M12.8125 7.96875H2.2937C2.03745 7.96875 1.82495 7.75625 1.82495 7.5C1.82495 7.24375 2.03745 7.03125 2.2937 7.03125H12.8125C13.0687 7.03125 13.2812 7.24375 13.2812 7.5C13.2812 7.75625 13.0687 7.96875 12.8125 7.96875Z" fill="white"/>
</svg>
