<svg width="14" height="14" viewBox="0 0 14 14" fill="none" xmlns="http://www.w3.org/2000/svg">
<path d="M7.00005 8.26588C5.75755 8.26588 4.74255 7.25671 4.74255 6.00838C4.74255 4.76005 5.75755 3.75671 7.00005 3.75671C8.24255 3.75671 9.25755 4.76588 9.25755 6.01421C9.25755 7.26255 8.24255 8.26588 7.00005 8.26588ZM7.00005 4.63171C6.24172 4.63171 5.61755 5.25005 5.61755 6.01421C5.61755 6.77838 6.23589 7.39671 7.00005 7.39671C7.76422 7.39671 8.38255 6.77838 8.38255 6.01421C8.38255 5.25005 7.75839 4.63171 7.00005 4.63171Z" fill="white"/>
<path d="M6.99998 13.2766C6.13665 13.2766 5.26748 12.95 4.59081 12.3025C2.86998 10.6458 0.968314 8.00329 1.68581 4.85913C2.33331 2.00663 4.82415 0.729126 6.99998 0.729126C6.99998 0.729126 6.99998 0.729126 7.00581 0.729126C9.18165 0.729126 11.6725 2.00663 12.32 4.86496C13.0316 8.00913 11.13 10.6458 9.40915 12.3025C8.73248 12.95 7.86331 13.2766 6.99998 13.2766ZM6.99998 1.60413C5.30248 1.60413 3.12081 2.50829 2.54331 5.05163C1.91331 7.79913 3.63998 10.1675 5.20331 11.6666C6.21248 12.6408 7.79331 12.6408 8.80248 11.6666C10.36 10.1675 12.0866 7.79913 11.4683 5.05163C10.885 2.50829 8.69748 1.60413 6.99998 1.60413Z" fill="white"/>
</svg>
