<svg width="79" height="79" viewBox="0 0 79 79" fill="none" xmlns="http://www.w3.org/2000/svg">
<circle cx="39.5" cy="39.5" r="39.5" fill="#34375F"/>
<path d="M51.75 41.0313H27.25C26.4129 41.0313 25.7188 40.3371 25.7188 39.5C25.7188 38.6629 26.4129 37.9688 27.25 37.9688H51.75C52.5871 37.9688 53.2813 38.6629 53.2813 39.5C53.2813 40.3371 52.5871 41.0313 51.75 41.0313Z" fill="white"/>
<path d="M39.5 53.2813C38.6629 53.2813 37.9688 52.5871 37.9688 51.75V27.25C37.9688 26.4129 38.6629 25.7188 39.5 25.7188C40.3371 25.7188 41.0313 26.4129 41.0313 27.25V51.75C41.0313 52.5871 40.3371 53.2813 39.5 53.2813Z" fill="white"/>
</svg>
