<svg width="14" height="14" viewBox="0 0 14 14" fill="none" xmlns="http://www.w3.org/2000/svg">
<path d="M5.34337 6.34079C5.28503 6.33496 5.21503 6.33496 5.15087 6.34079C3.76253 6.29413 2.66003 5.15663 2.66003 3.75663C2.66003 2.32746 3.81503 1.16663 5.25003 1.16663C6.6792 1.16663 7.84003 2.32746 7.84003 3.75663C7.8342 5.15663 6.7317 6.29413 5.34337 6.34079Z" stroke="white" stroke-linecap="round" stroke-linejoin="round"/>
<path d="M9.57254 2.33337C10.7042 2.33337 11.6142 3.24921 11.6142 4.37504C11.6142 5.47754 10.7392 6.37587 9.64837 6.41671C9.6017 6.41087 9.5492 6.41087 9.4967 6.41671" stroke="white" stroke-linecap="round" stroke-linejoin="round"/>
<path d="M2.42667 8.49337C1.015 9.43837 1.015 10.9784 2.42667 11.9175C4.03084 12.9909 6.66167 12.9909 8.26584 11.9175C9.6775 10.9725 9.6775 9.43254 8.26584 8.49337C6.6675 7.42587 4.03667 7.42587 2.42667 8.49337Z" stroke="white" stroke-linecap="round" stroke-linejoin="round"/>
<path d="M10.6984 11.6666C11.1184 11.5791 11.515 11.41 11.8417 11.1591C12.7517 10.4766 12.7517 9.35079 11.8417 8.66829C11.5209 8.42329 11.13 8.25996 10.7159 8.16663" stroke="white" stroke-linecap="round" stroke-linejoin="round"/>
</svg>
