<svg width="16" height="16" viewBox="0 0 16 16" fill="none" xmlns="http://www.w3.org/2000/svg">
<path d="M7.99997 15.1667C4.5333 15.1667 1.71997 12.3467 1.71997 8.88666C1.71997 7.63999 2.08664 6.43332 2.77997 5.39332C2.9333 5.16666 3.24664 5.09999 3.4733 5.25332C3.69997 5.40666 3.76664 5.71999 3.6133 5.94666C3.0333 6.81332 2.72664 7.83332 2.72664 8.87999C2.72664 11.7933 5.0933 14.16 8.00664 14.16C10.92 14.16 13.2866 11.7933 13.2866 8.87999C13.2866 5.96666 10.9133 3.59999 7.99997 3.59999C7.38664 3.59999 6.78664 3.68666 6.21997 3.85999C5.9533 3.93999 5.6733 3.79332 5.5933 3.52666C5.5133 3.25999 5.65997 2.97999 5.92664 2.89999C6.5933 2.69999 7.28664 2.59332 7.99997 2.59332C11.4666 2.59332 14.28 5.41332 14.28 8.87332C14.28 12.3333 11.4666 15.1667 7.99997 15.1667Z" fill="#CCFF00"/>
<path d="M5.24674 4.04665C5.13341 4.04665 5.01341 4.00665 4.92008 3.92665C4.70674 3.73998 4.68674 3.42665 4.86674 3.21998L6.79341 1.00665C6.97341 0.799979 7.29341 0.773312 7.50008 0.959979C7.70674 1.13998 7.72674 1.45998 7.54674 1.66665L5.62008 3.87331C5.52008 3.98665 5.38008 4.04665 5.24674 4.04665Z" fill="#CCFF00"/>
<path d="M7.49338 5.68665C7.39338 5.68665 7.28672 5.65332 7.20005 5.59332L4.94672 3.94665C4.72672 3.78665 4.68005 3.47332 4.84005 3.25332C5.00005 3.02665 5.31338 2.97998 5.54005 3.13998L7.78672 4.77998C8.00672 4.93998 8.06005 5.25332 7.89338 5.47998C7.80005 5.61998 7.64672 5.68665 7.49338 5.68665Z" fill="#CCFF00"/>
</svg>
